<svg width="46" height="47" viewBox="0 0 46 47" fill="none" xmlns="http://www.w3.org/2000/svg">
<g clip-path="url(#clip0_2_149)">
<path d="M18.0657 3.70532C20.1043 3.70546 21.7619 5.36296 21.762 7.40161V18.1907C21.7619 20.2292 20.1042 21.8868 18.0657 21.887H7.27667C5.23802 21.887 3.58052 20.2292 3.58038 18.1907V7.40161C3.58038 5.36287 5.23794 3.70532 7.27667 3.70532H18.0657ZM7.27667 5.70337C6.34065 5.70337 5.57843 6.46559 5.57843 7.40161V18.1907C5.57856 19.1266 6.34073 19.8889 7.27667 19.8889H18.0657C19.0016 19.8888 19.7638 19.1265 19.764 18.1907V7.40161C19.764 6.46567 19.0016 5.7035 18.0657 5.70337H7.27667Z" fill="#3D3D3F" stroke="#3D3D3F" stroke-width="0.2"/>
<path d="M39.2257 3.70532C41.2643 3.70546 42.9219 5.36296 42.922 7.40161V18.1907C42.9219 20.2292 41.2642 21.8868 39.2257 21.887H28.4367C26.398 21.887 24.7405 20.2292 24.7404 18.1907V7.40161C24.7404 5.36287 26.3979 3.70532 28.4367 3.70532H39.2257ZM28.4367 5.70337C27.5007 5.70337 26.7384 6.46559 26.7384 7.40161V18.1907C26.7386 19.1266 27.5007 19.8889 28.4367 19.8889H39.2257C40.1616 19.8888 40.9238 19.1265 40.924 18.1907V7.40161C40.924 6.46568 40.1616 5.70351 39.2257 5.70337H28.4367Z" fill="#3D3D3F" stroke="#3D3D3F" stroke-width="0.2"/>
<path d="M18.0657 25.2836C20.1043 25.2837 21.7619 26.9412 21.762 28.9799V39.7689C21.7619 41.8075 20.1042 43.4651 18.0657 43.4652H7.27667C5.23802 43.4652 3.58052 41.8075 3.58038 39.7689V28.9799C3.58038 26.9411 5.23794 25.2836 7.27667 25.2836H18.0657ZM7.27667 27.2816C6.34065 27.2816 5.57843 28.0438 5.57843 28.9799V39.7689C5.57857 40.7048 6.34074 41.4672 7.27667 41.4672H18.0657C19.0016 41.467 19.7638 40.7047 19.764 39.7689V28.9799C19.764 28.0439 19.0016 27.2818 18.0657 27.2816H7.27667Z" fill="#3D3D3F" stroke="#3D3D3F" stroke-width="0.2"/>
<path d="M39.2257 25.2836C41.2643 25.2837 42.9219 26.9412 42.922 28.9799V39.7689C42.9219 41.8075 41.2642 43.4651 39.2257 43.4652H28.4367C26.398 43.4652 24.7405 41.8075 24.7404 39.7689V28.9799C24.7404 26.9411 26.3979 25.2836 28.4367 25.2836H39.2257ZM28.4367 27.2816C27.5007 27.2816 26.7384 28.0438 26.7384 28.9799V39.7689C26.7386 40.7048 27.5007 41.4672 28.4367 41.4672H39.2257C40.1616 41.467 40.9238 40.7047 40.924 39.7689V28.9799C40.924 28.0439 40.1616 27.2818 39.2257 27.2816H28.4367Z" fill="#3D3D3F" stroke="#3D3D3F" stroke-width="0.2"/>
</g>
<defs>
<clipPath id="clip0_2_149">
<rect x="3.67999" y="3.80493" width="39.56" height="39.56" rx="3" fill="white"/>
</clipPath>
</defs>
</svg>
